<svg xmlns="http://www.w3.org/2000/svg" viewBox="0 0 14.68 11.48"><defs><style>.cls-1{fill:#fff;}.cls-2{fill:#00c7e8;}</style></defs><title>Ресурс 5</title><g id="Слой_2" data-name="Слой 2"><g id="object"><path class="cls-1" d="M12.8,7H1.87A.94.94,0,0,0,1,7.57L.05,10.23a1,1,0,0,0,.12.85.94.94,0,0,0,.77.4h12.8a.94.94,0,0,0,.88-1.25l-.94-2.66A.93.93,0,0,0,12.8,7Z"/><rect class="cls-2" x="6.52" y="10.83" width="1.65" height="0.27"/><path class="cls-1" d="M12.8,6.87H1.87V.94H12.8m0-.94H1.87A.93.93,0,0,0,.94.94V7.81h12.8V.94A.94.94,0,0,0,12.8,0Z"/></g></g></svg>