<svg xmlns="http://www.w3.org/2000/svg" viewBox="0 0 22 3"><defs><style>.cls-1{fill:#fff;}</style></defs><title>Ресурс 4</title><g id="Слой_2" data-name="Слой 2"><g id="object"><path class="cls-1" d="M1.79,1.91s0,0,.05,0L2,2.06a1.14,1.14,0,0,1-.35.27,1.28,1.28,0,0,1-.5.09,1.14,1.14,0,0,1-.46-.09.9.9,0,0,1-.35-.25,1,1,0,0,1-.23-.37A1.53,1.53,0,0,1,0,1.22,1.3,1.3,0,0,1,.09.73,1,1,0,0,1,.33.35,1.21,1.21,0,0,1,.7.1,1.51,1.51,0,0,1,1.18,0,1.06,1.06,0,0,1,1.63.1,1.15,1.15,0,0,1,2,.31l-.1.15,0,0h0l-.05,0-.05,0L1.61.4a.31.31,0,0,0-.1-.05l-.15,0-.18,0A.81.81,0,0,0,.83.36.8.8,0,0,0,.56.54.92.92,0,0,0,.39.83a1.23,1.23,0,0,0-.07.39,1.13,1.13,0,0,0,.07.39.82.82,0,0,0,.17.29.68.68,0,0,0,.26.18.83.83,0,0,0,.32.06h.19l.15,0A.59.59,0,0,0,1.62,2l.12-.1Z"/><path class="cls-1" d="M3,.71a.88.88,0,0,1,.33.06.62.62,0,0,1,.25.17.72.72,0,0,1,.16.27,1.23,1.23,0,0,1,0,.35,1.36,1.36,0,0,1,0,.36.76.76,0,0,1-.16.26.64.64,0,0,1-.25.18.94.94,0,0,1-.66,0,.64.64,0,0,1-.25-.18.76.76,0,0,1-.16-.26,1.36,1.36,0,0,1,0-.36,1.23,1.23,0,0,1,0-.35A.72.72,0,0,1,2.43.94.62.62,0,0,1,2.68.77.88.88,0,0,1,3,.71ZM3,2.19A.44.44,0,0,0,3.38,2a.76.76,0,0,0,.12-.46.78.78,0,0,0-.12-.46A.44.44,0,0,0,3,.93a.54.54,0,0,0-.22,0,.44.44,0,0,0-.15.12.53.53,0,0,0-.09.2,1,1,0,0,0,0,.26,1.12,1.12,0,0,0,0,.27A.56.56,0,0,0,2.64,2a.29.29,0,0,0,.15.12A.54.54,0,0,0,3,2.19Z"/><path class="cls-1" d="M4.16,3V.73h.18s.06,0,.08.06l0,.2A.79.79,0,0,1,4.68.78.66.66,0,0,1,5,.7a.58.58,0,0,1,.26.06.51.51,0,0,1,.2.16.85.85,0,0,1,.12.27,1.25,1.25,0,0,1,0,.36,1.21,1.21,0,0,1,0,.34,1,1,0,0,1-.14.28.84.84,0,0,1-.23.18.73.73,0,0,1-.3.07.53.53,0,0,1-.26-.06.56.56,0,0,1-.2-.14V3Zm.74-2A.51.51,0,0,0,4.65,1a.89.89,0,0,0-.2.19V2a.48.48,0,0,0,.18.15.5.5,0,0,0,.21,0A.42.42,0,0,0,5.2,2a.77.77,0,0,0,.13-.47,1.14,1.14,0,0,0,0-.28.56.56,0,0,0-.09-.19A.35.35,0,0,0,5.08,1,.48.48,0,0,0,4.9.94Z"/><path class="cls-1" d="M6.42,2.88l0,.06L6.31,3H6.1l.3-.66L5.71.73H6l0,0s0,0,0,0L6.5,1.84l0,.07s0,.05,0,.07l0-.07s0,0,0-.07L7,.79s0,0,0,0l.05,0h.23Z"/><path class="cls-1" d="M7.61,2.39V.73h.17l.06,0a.16.16,0,0,1,0,.06l0,.26A.64.64,0,0,1,8.1.8.43.43,0,0,1,8.39.7l.13,0,.1,0,0,.22s0,0-.05,0L8.46,1H8.33a.39.39,0,0,0-.26.09.69.69,0,0,0-.17.25V2.39Z"/><path class="cls-1" d="M9.32.21a.12.12,0,0,1,0,.08.25.25,0,0,1,0,.07L9.19.4l-.08,0L9,.4,9,.36,8.92.29a.24.24,0,0,1,0-.08.19.19,0,0,1,0-.08A.18.18,0,0,1,9,.06L9,0l.08,0,.08,0,.07,0a.16.16,0,0,1,0,.07A.11.11,0,0,1,9.32.21ZM9.26.73V2.39H9V.73Z"/><path class="cls-1" d="M10.33.7a.64.64,0,0,1,.2,0A.44.44,0,0,1,10.7.8h.45V.91s0,0-.06.06L10.9,1a.6.6,0,0,1,0,.24.54.54,0,0,1,0,.22.7.7,0,0,1-.13.17.64.64,0,0,1-.2.11,1,1,0,0,1-.25,0l-.22,0a.27.27,0,0,0-.08.07.13.13,0,0,0,0,.08.11.11,0,0,0,.05.09.4.4,0,0,0,.13,0l.18,0h.4a.75.75,0,0,1,.18.07.24.24,0,0,1,.13.11.36.36,0,0,1,0,.19.42.42,0,0,1-.06.21.5.5,0,0,1-.15.18.9.9,0,0,1-.24.12.88.88,0,0,1-.33.05A1.51,1.51,0,0,1,10,3a1,1,0,0,1-.23-.1.43.43,0,0,1-.13-.14.34.34,0,0,1-.05-.17.32.32,0,0,1,.08-.21.43.43,0,0,1,.22-.13l-.12-.09a.33.33,0,0,1,0-.15s0-.05,0-.07a.59.59,0,0,1,0-.08.23.23,0,0,1,.07-.07L10,1.69a.58.58,0,0,1-.19-.19.44.44,0,0,1-.07-.26A.51.51,0,0,1,9.75,1,.43.43,0,0,1,9.88.85a.55.55,0,0,1,.2-.11A.93.93,0,0,1,10.33.7Zm.52,1.78a.11.11,0,0,0,0-.1.15.15,0,0,0-.09-.06l-.14,0h-.33a.47.47,0,0,1-.17,0,.58.58,0,0,0-.15.11.22.22,0,0,0,0,.26A.24.24,0,0,0,10,2.7l.14.06.21,0,.22,0a.52.52,0,0,0,.15-.07.18.18,0,0,0,.1-.09A.19.19,0,0,0,10.85,2.48Zm-.52-.9.16,0a.41.41,0,0,0,.11-.07.41.41,0,0,0,.07-.11.51.51,0,0,0,0-.13A.33.33,0,0,0,10.6,1a.45.45,0,0,0-.54,0,.33.33,0,0,0-.09.25.51.51,0,0,0,0,.13.41.41,0,0,0,.07.11.35.35,0,0,0,.12.07Z"/><path class="cls-1" d="M12,2.42a.41.41,0,0,1-.3-.11A.44.44,0,0,1,11.54,2V1h-.2a.05.05,0,0,1,0,0,.08.08,0,0,1,0,0V.79l.27,0,.07-.51a.05.05,0,0,1,0,0l0,0h.14V.76h.48V1h-.48V2a.25.25,0,0,0,.05.16.22.22,0,0,0,.14.05h.08l.05,0,0,0h0l0,0,.08.14a.54.54,0,0,1-.18.11A.54.54,0,0,1,12,2.42Z"/><path class="cls-1" d="M13.62,1a.07.07,0,0,1-.11,0l-.08,0-.11,0-.15,0L13,.94l-.1.05a.21.21,0,0,0-.06.08.16.16,0,0,0,0,.09.18.18,0,0,0,0,.11l.1.07a.45.45,0,0,0,.14.06l.15.05.16.06.14.08.1.12a.47.47,0,0,1,0,.17.54.54,0,0,1-.05.22.38.38,0,0,1-.12.17.86.86,0,0,1-.19.11.77.77,0,0,1-.27,0,.83.83,0,0,1-.32-.06,1,1,0,0,1-.24-.14l.07-.11,0,0h0l.06,0,.08,0,.12.06.16,0,.15,0,.11-.06A.24.24,0,0,0,13.42,2a.36.36,0,0,0,0-.11.15.15,0,0,0,0-.11.36.36,0,0,0-.09-.08l-.14-.05L13,1.64l-.16-.06a.42.42,0,0,1-.14-.09.4.4,0,0,1-.1-.12.48.48,0,0,1,0-.18.41.41,0,0,1,0-.19.39.39,0,0,1,.11-.15.68.68,0,0,1,.19-.11.9.9,0,0,1,.25,0,.75.75,0,0,1,.52.19Z"/><path class="cls-1" d="M15.47,0a.82.82,0,0,1,.28,0A.65.65,0,0,1,16,.19a.52.52,0,0,1,.14.21.6.6,0,0,1,.06.27.86.86,0,0,1,0,.24.91.91,0,0,1-.11.22,1.3,1.3,0,0,1-.15.2l-.19.19-.62.64a.35.35,0,0,1,.14,0h.91l.08,0a.11.11,0,0,1,0,.08v.17H14.66v-.1a.13.13,0,0,1,0-.06.21.21,0,0,1,0-.06l.75-.76.17-.18a1.1,1.1,0,0,0,.14-.18,1.42,1.42,0,0,0,.08-.18.58.58,0,0,0,0-.19.48.48,0,0,0,0-.18.73.73,0,0,0-.09-.13.39.39,0,0,0-.14-.08l-.16,0-.17,0a.35.35,0,0,0-.13.08.36.36,0,0,0-.1.11A.35.35,0,0,0,15,.62a.16.16,0,0,1,0,.07l-.06,0h0l-.15,0a.89.89,0,0,1,.08-.29A.67.67,0,0,1,15,.19a.65.65,0,0,1,.23-.13A.86.86,0,0,1,15.47,0Z"/><path class="cls-1" d="M18.19,1.22a2.09,2.09,0,0,1-.06.53,1.49,1.49,0,0,1-.18.38.71.71,0,0,1-.28.21.73.73,0,0,1-.33.08A.81.81,0,0,1,17,2.34a.76.76,0,0,1-.27-.21,1.49,1.49,0,0,1-.18-.38,2.09,2.09,0,0,1-.06-.53,2.12,2.12,0,0,1,.06-.54,1.42,1.42,0,0,1,.18-.37A.8.8,0,0,1,17,.09.8.8,0,0,1,17.34,0a.72.72,0,0,1,.33.07A.74.74,0,0,1,18,.31a1.42,1.42,0,0,1,.18.37A2.12,2.12,0,0,1,18.19,1.22Zm-.3,0a2.68,2.68,0,0,0,0-.45,1.22,1.22,0,0,0-.13-.3.51.51,0,0,0-.17-.16.47.47,0,0,0-.42,0A.43.43,0,0,0,17,.47a.76.76,0,0,0-.13.3,1.92,1.92,0,0,0,0,.45,1.92,1.92,0,0,0,0,.45A.71.71,0,0,0,17,2a.37.37,0,0,0,.17.16.47.47,0,0,0,.42,0A.42.42,0,0,0,17.72,2a1.13,1.13,0,0,0,.13-.29A2.68,2.68,0,0,0,17.89,1.22Z"/><path class="cls-1" d="M18.76,2.17h.51V.42l-.42.36,0,0h-.08a0,0,0,0,1,0,0l-.1-.13.7-.6h.24V2.17H20v.22H18.76Z"/><path class="cls-1" d="M21.26,1a.86.86,0,0,1,.27.05.64.64,0,0,1,.22.14.71.71,0,0,1,.15.22.65.65,0,0,1,.05.29A.81.81,0,0,1,21.9,2a.81.81,0,0,1-.17.24.72.72,0,0,1-.25.16.88.88,0,0,1-.33.06.79.79,0,0,1-.32-.06.72.72,0,0,1-.25-.16A.58.58,0,0,1,20.43,2a.88.88,0,0,1-.06-.33.82.82,0,0,1,.07-.33,1.63,1.63,0,0,1,.22-.37l.59-.81.07,0,.09,0h.26l-.82,1L21,1A.78.78,0,0,1,21.26,1Zm-.61.72a.45.45,0,0,0,0,.2.46.46,0,0,0,.09.17.49.49,0,0,0,.16.1.65.65,0,0,0,.2,0,.78.78,0,0,0,.22,0A.57.57,0,0,0,21.52,2a.37.37,0,0,0,.1-.16.42.42,0,0,0,0-.2.64.64,0,0,0,0-.2.46.46,0,0,0-.11-.16.4.4,0,0,0-.15-.1.66.66,0,0,0-.21,0,.49.49,0,0,0-.21,0,.44.44,0,0,0-.16.1.54.54,0,0,0-.1.16A.41.41,0,0,0,20.65,1.67Z"/></g></g></svg>