<svg xmlns="http://www.w3.org/2000/svg" viewBox="0 0 3.93 3.93"><defs><style>.cls-1{fill:#fff;}</style></defs><title>Ресурс 5</title><g id="Слой_2" data-name="Слой 2"><g id="object"><path class="cls-1" d="M2,3.93a2,2,0,1,1,2-2A2,2,0,0,1,2,3.93Zm1.65-1.7a2.46,2.46,0,0,0-1-.07,8,8,0,0,1,.33,1.2A1.67,1.67,0,0,0,3.62,2.23Zm-1,1.28a6.39,6.39,0,0,0-.36-1.27h0a2.31,2.31,0,0,0-1.31,1,1.61,1.61,0,0,0,1,.36A1.58,1.58,0,0,0,2.62,3.51ZM.72,3.09A2.71,2.71,0,0,1,2.08,2l.07,0c0-.09-.09-.19-.14-.28a6.27,6.27,0,0,1-1.72.24V2A1.66,1.66,0,0,0,.72,3.09ZM.32,1.63a6.43,6.43,0,0,0,1.56-.21,8.57,8.57,0,0,0-.63-1A1.67,1.67,0,0,0,.32,1.63ZM1.57.33a9.8,9.8,0,0,1,.63,1A1.94,1.94,0,0,0,3.08.71,1.7,1.7,0,0,0,2,.29,1.75,1.75,0,0,0,1.57.33Zm1.7.58a2.47,2.47,0,0,1-.94.66l.11.24a.36.36,0,0,0,0,.09A4.08,4.08,0,0,1,3.65,2,1.69,1.69,0,0,0,3.27.91Z"/></g></g></svg>