<svg xmlns="http://www.w3.org/2000/svg" viewBox="0 0 15.47 15.9"><defs><style>.cls-1{fill:#fff;}</style></defs><title>Ресурс 6</title><g id="Слой_2" data-name="Слой 2"><g id="object"><path class="cls-1" d="M10.14,10.83v-.06h0c0-.17,0-.34,0-.5A.34.34,0,0,0,9.78,10,1.12,1.12,0,0,1,9,8.07a.29.29,0,0,0,0-.38,5.17,5.17,0,0,0-.81-.81.28.28,0,0,0-.38,0,1.18,1.18,0,0,1-1.27.28,1.12,1.12,0,0,1-.68-1.1.27.27,0,0,0-.25-.29,5.46,5.46,0,0,0-.58,0h0a4.53,4.53,0,0,0-.52,0H4.48a.27.27,0,0,0-.25.29A1.14,1.14,0,0,1,3.85,7a1.1,1.1,0,0,1-.28.17,1.19,1.19,0,0,1-1.25-.29.28.28,0,0,0-.38,0l0,0h0a3.45,3.45,0,0,0-.28.26l-.12.1c-.06.06-.11.13-.16.19a1.51,1.51,0,0,0-.21.23h0l0,0a.28.28,0,0,0,0,.38,1.14,1.14,0,0,1,.29,1.26,1.24,1.24,0,0,1-.17.27,1.21,1.21,0,0,1-.91.4.27.27,0,0,0-.3.24v0H0v.06a4.19,4.19,0,0,0,0,.5,4.36,4.36,0,0,0,0,.51v.06H0v0a.27.27,0,0,0,.3.25,1.24,1.24,0,0,1,.91.39,1.61,1.61,0,0,1,.17.28,1.15,1.15,0,0,1-.29,1.26.28.28,0,0,0,0,.38h0v0a2.19,2.19,0,0,0,.21.23l.16.18.12.11a3.45,3.45,0,0,0,.28.26h0l0,0a.29.29,0,0,0,.38,0,1.17,1.17,0,0,1,1.25-.29.88.88,0,0,1,.28.17,1.12,1.12,0,0,1,.38.9.29.29,0,0,0,.25.3h.06a4.53,4.53,0,0,0,.52,0h0a5.49,5.49,0,0,0,.58,0,.29.29,0,0,0,.25-.3,1.14,1.14,0,0,1,.68-1.1,1.18,1.18,0,0,1,1.27.29.28.28,0,0,0,.38,0A5.17,5.17,0,0,0,9.05,14a.3.3,0,0,0,0-.39,1.11,1.11,0,0,1-.29-1.25,1.14,1.14,0,0,1,1-.69.34.34,0,0,0,.33-.25c0-.17,0-.33,0-.5h0ZM5.08,13a2.21,2.21,0,1,1,2.21-2.21A2.23,2.23,0,0,1,5.08,13Z"/><path class="cls-1" d="M12.83,3.22v0h0c0-.11,0-.21,0-.32a.22.22,0,0,0-.21-.16.72.72,0,0,1-.67-.44.71.71,0,0,1,.18-.79.19.19,0,0,0,0-.25,3.08,3.08,0,0,0-.51-.51.17.17,0,0,0-.24,0,.76.76,0,0,1-.81.18.72.72,0,0,1-.43-.7A.17.17,0,0,0,10,0L9.63,0h0L9.28,0h0a.19.19,0,0,0-.16.19.72.72,0,0,1-.24.58,1,1,0,0,1-.17.1.74.74,0,0,1-.8-.18.17.17,0,0,0-.24,0h0L7.42.87,7.34.94l-.1.12-.13.14h0a0,0,0,0,1,0,0,.19.19,0,0,0,0,.25.71.71,0,0,1,.18.79.77.77,0,0,1-.1.18.8.8,0,0,1-.59.25.16.16,0,0,0-.18.16h0v0c0,.11,0,.21,0,.32s0,.21,0,.32v0h0a.17.17,0,0,0,.18.16A.8.8,0,0,1,7.19,4a.77.77,0,0,1,.1.18A.71.71,0,0,1,7.11,5a.19.19,0,0,0,0,.25h0c0,.06.09.1.13.15l.1.12.08.07.18.16h0a.17.17,0,0,0,.24,0,.74.74,0,0,1,.8-.18.59.59,0,0,1,.17.1.72.72,0,0,1,.24.58.19.19,0,0,0,.16.19h0l.33,0h0l.36,0a.18.18,0,0,0,.16-.19.72.72,0,0,1,.43-.7.76.76,0,0,1,.81.18.17.17,0,0,0,.24,0,3.08,3.08,0,0,0,.51-.51.19.19,0,0,0,0-.25.71.71,0,0,1-.18-.79.72.72,0,0,1,.67-.44.22.22,0,0,0,.21-.16c0-.11,0-.21,0-.32h0ZM9.62,4.62A1.4,1.4,0,1,1,11,3.22,1.4,1.4,0,0,1,9.62,4.62Z"/><path class="cls-1" d="M15.47,8.67v0h0a2.26,2.26,0,0,0,0-.26.17.17,0,0,0-.17-.13.59.59,0,0,1-.55-.36.58.58,0,0,1,.15-.65.15.15,0,0,0,0-.2,3.42,3.42,0,0,0-.42-.43.15.15,0,0,0-.2,0,.6.6,0,0,1-.66.15.6.6,0,0,1-.36-.57.15.15,0,0,0-.13-.16l-.3,0h0l-.27,0h0a.15.15,0,0,0-.13.16.6.6,0,0,1-.2.47l-.14.08a.62.62,0,0,1-.66-.14.14.14,0,0,0-.2,0h0L11,6.75,11,6.81l-.08.09L10.78,7h0a.15.15,0,0,0,0,.2.58.58,0,0,1,.15.65.42.42,0,0,1-.09.14.61.61,0,0,1-.47.21.15.15,0,0,0-.16.13h0v0a2.46,2.46,0,0,0,0,.26,2.45,2.45,0,0,0,0,.27V9h0a.15.15,0,0,0,.16.13.64.64,0,0,1,.47.2.6.6,0,0,1,.09.15.59.59,0,0,1-.15.65.15.15,0,0,0,0,.2h0l.11.12.08.09.06.06.15.14h0a.14.14,0,0,0,.2,0,.64.64,0,0,1,.66-.15l.14.09a.6.6,0,0,1,.2.47.15.15,0,0,0,.13.16h0l.27,0h0l.3,0a.15.15,0,0,0,.13-.16.6.6,0,0,1,.36-.57.6.6,0,0,1,.66.15.14.14,0,0,0,.2,0,2.78,2.78,0,0,0,.42-.42.15.15,0,0,0,0-.2.58.58,0,0,1,.4-1A.17.17,0,0,0,15.46,9a2.26,2.26,0,0,0,0-.26h0ZM12.84,9.82A1.15,1.15,0,1,1,14,8.67,1.15,1.15,0,0,1,12.84,9.82Z"/></g></g></svg>