<svg xmlns="http://www.w3.org/2000/svg" viewBox="0 0 2.93 2.93"><defs><style>.cls-1{fill:#fff;}</style></defs><title>Ресурс 7</title><g id="Слой_2" data-name="Слой 2"><g id="object"><path class="cls-1" d="M.38,0H2.56a.38.38,0,0,1,.37.38V2.56a.37.37,0,0,1-.37.37H.38A.37.37,0,0,1,0,2.56V.38A.38.38,0,0,1,.38,0ZM2.14.33A.13.13,0,0,0,2,.46V.77A.13.13,0,0,0,2.14.9h.33A.13.13,0,0,0,2.6.77V.46A.13.13,0,0,0,2.47.33Zm.46.91H2.35a1.07,1.07,0,0,1,0,.25.91.91,0,0,1-1.82,0,1.07,1.07,0,0,1,0-.25H.33V2.48a.12.12,0,0,0,.11.12H2.49a.12.12,0,0,0,.11-.12ZM1.47.89a.58.58,0,0,0-.59.57A.57.57,0,0,0,1.47,2a.57.57,0,0,0,.59-.57A.58.58,0,0,0,1.47.89Z"/></g></g></svg>