<svg xmlns="http://www.w3.org/2000/svg" viewBox="0 0 52 7"><defs><style>.cls-1{fill:#fff;}</style></defs><title>Ресурс 4</title><g id="Слой_2" data-name="Слой 2"><g id="object"><path class="cls-1" d="M3.88,4.12V6.61H2.37V4.12L0,.07H1.34a.5.5,0,0,1,.31.09A.75.75,0,0,1,1.84.4l.92,1.9q.12.23.21.42l.17.38a2.39,2.39,0,0,1,.16-.38l.2-.42L4.41.4A.83.83,0,0,1,4.49.28.52.52,0,0,1,4.6.18.57.57,0,0,1,4.73.1a.52.52,0,0,1,.18,0H6.25Z"/><path class="cls-1" d="M12.79,3.34a3.6,3.6,0,0,1-.24,1.32,3.09,3.09,0,0,1-1.76,1.76A3.85,3.85,0,0,1,8,6.42a3.06,3.06,0,0,1-1.07-.7,3.13,3.13,0,0,1-.69-1.06A3.41,3.41,0,0,1,6,3.34,3.41,3.41,0,0,1,6.25,2,3.09,3.09,0,0,1,8,.26a3.85,3.85,0,0,1,2.78,0,3.31,3.31,0,0,1,1.07.7A3.13,3.13,0,0,1,12.55,2,3.6,3.6,0,0,1,12.79,3.34Zm-1.55,0a2.86,2.86,0,0,0-.12-.87,1.92,1.92,0,0,0-.37-.66,1.39,1.39,0,0,0-.57-.41,2.1,2.1,0,0,0-1.56,0A1.5,1.5,0,0,0,8,1.81a1.75,1.75,0,0,0-.36.66,2.84,2.84,0,0,0-.13.87,2.89,2.89,0,0,0,.13.87A1.75,1.75,0,0,0,8,4.87a1.5,1.5,0,0,0,.58.41,1.94,1.94,0,0,0,.78.14,1.94,1.94,0,0,0,.78-.14,1.39,1.39,0,0,0,.57-.41,1.92,1.92,0,0,0,.37-.66A2.9,2.9,0,0,0,11.24,3.34Z"/><path class="cls-1" d="M16.24,5.41a1.33,1.33,0,0,0,.54-.1A1.09,1.09,0,0,0,17.19,5a1.36,1.36,0,0,0,.25-.46,2,2,0,0,0,.09-.62V.07h1.52V3.94a3.08,3.08,0,0,1-.2,1.11,2.37,2.37,0,0,1-.56.86,2.57,2.57,0,0,1-.88.57,3.55,3.55,0,0,1-2.35,0,2.67,2.67,0,0,1-.88-.57,2.51,2.51,0,0,1-.56-.86,3.08,3.08,0,0,1-.19-1.11V.07H15V3.94a2.39,2.39,0,0,0,.08.62,1.38,1.38,0,0,0,.26.46,1.06,1.06,0,0,0,.4.29A1.38,1.38,0,0,0,16.24,5.41Z"/><path class="cls-1" d="M21.55,4.19V6.61H20V.07h2.13a4.25,4.25,0,0,1,1.21.15,2.33,2.33,0,0,1,.82.4,1.62,1.62,0,0,1,.46.62,2.11,2.11,0,0,1,.14.77,2,2,0,0,1-.09.6,1.67,1.67,0,0,1-.25.52,1.86,1.86,0,0,1-.41.43,2.08,2.08,0,0,1-.57.31,1.45,1.45,0,0,1,.29.19,1.22,1.22,0,0,1,.23.27l1.39,2.28H24a.58.58,0,0,1-.55-.29l-1.08-1.9a.59.59,0,0,0-.17-.18.68.68,0,0,0-.27,0Zm0-1h.61a1.64,1.64,0,0,0,.53-.08A1.1,1.1,0,0,0,23,2.85a.81.81,0,0,0,.21-.33,1.25,1.25,0,0,0,.06-.4A.82.82,0,0,0,23,1.45a1.33,1.33,0,0,0-.87-.24h-.61Z"/><path class="cls-1" d="M29.25,5.4h2.42V6.61H27.73V.07h1.52Z"/><path class="cls-1" d="M38.48,3.34a3.6,3.6,0,0,1-.24,1.32,3.47,3.47,0,0,1-.69,1.06,3.26,3.26,0,0,1-1.07.7,3.85,3.85,0,0,1-2.78,0,3.2,3.2,0,0,1-1.08-.7,3.47,3.47,0,0,1-.69-1.06,3.6,3.6,0,0,1-.24-1.32A3.6,3.6,0,0,1,31.93,2,3.35,3.35,0,0,1,32.62,1,3.2,3.2,0,0,1,33.7.26a3.85,3.85,0,0,1,2.78,0,3.42,3.42,0,0,1,1.07.7A3.47,3.47,0,0,1,38.24,2,3.6,3.6,0,0,1,38.48,3.34Zm-1.55,0a2.57,2.57,0,0,0-.13-.87,1.75,1.75,0,0,0-.36-.66,1.5,1.5,0,0,0-.58-.41,1.86,1.86,0,0,0-.77-.15,1.9,1.9,0,0,0-.78.15,1.43,1.43,0,0,0-.58.41,1.75,1.75,0,0,0-.36.66,2.57,2.57,0,0,0-.13.87,2.61,2.61,0,0,0,.13.87,1.75,1.75,0,0,0,.36.66,1.43,1.43,0,0,0,.58.41,1.91,1.91,0,0,0,.78.14,1.86,1.86,0,0,0,.77-.14,1.5,1.5,0,0,0,.58-.41,1.75,1.75,0,0,0,.36-.66A2.61,2.61,0,0,0,36.93,3.34Z"/><path class="cls-1" d="M42.28,5.51a2.38,2.38,0,0,0,.56,0,3.5,3.5,0,0,0,.46-.14v-1h-.65a.31.31,0,0,1-.22-.07.24.24,0,0,1-.08-.19V3.22h2.32V6a4,4,0,0,1-.52.32,3.63,3.63,0,0,1-.58.21,4.28,4.28,0,0,1-.66.13,5.8,5.8,0,0,1-.74,0,3.42,3.42,0,0,1-1.33-.25,3.38,3.38,0,0,1-1.06-.7,3.21,3.21,0,0,1-.7-1.06,3.42,3.42,0,0,1-.25-1.33A3.68,3.68,0,0,1,39.07,2a3,3,0,0,1,.69-1A3.16,3.16,0,0,1,40.85.25,3.87,3.87,0,0,1,42.28,0a3.74,3.74,0,0,1,.77.07,3.18,3.18,0,0,1,.66.18,3.25,3.25,0,0,1,.56.28,3.08,3.08,0,0,1,.44.35l-.43.67-.15.15a.46.46,0,0,1-.2.05.48.48,0,0,1-.27-.09l-.34-.19A2.19,2.19,0,0,0,43,1.35a1.8,1.8,0,0,0-.35-.08l-.41,0a1.92,1.92,0,0,0-.77.15,1.63,1.63,0,0,0-.58.43,2,2,0,0,0-.37.65,2.59,2.59,0,0,0-.13.86,2.91,2.91,0,0,0,.14.92,2,2,0,0,0,.4.68,1.7,1.7,0,0,0,.6.43A2.1,2.1,0,0,0,42.28,5.51Z"/><path class="cls-1" d="M52,3.34a3.6,3.6,0,0,1-.24,1.32,3.13,3.13,0,0,1-.69,1.06,3.06,3.06,0,0,1-1.07.7,3.66,3.66,0,0,1-1.39.26,3.7,3.7,0,0,1-1.39-.26A3.09,3.09,0,0,1,45.5,4.66a3.41,3.41,0,0,1-.25-1.32A3.41,3.41,0,0,1,45.5,2,3,3,0,0,1,46.19,1a3.16,3.16,0,0,1,1.07-.7A3.7,3.7,0,0,1,48.65,0,3.66,3.66,0,0,1,50,.26a3.21,3.21,0,0,1,1.07.7A3.13,3.13,0,0,1,51.8,2,3.6,3.6,0,0,1,52,3.34Zm-1.55,0a2.86,2.86,0,0,0-.12-.87A2.08,2.08,0,0,0,50,1.81a1.5,1.5,0,0,0-.58-.41,2.1,2.1,0,0,0-1.56,0,1.5,1.5,0,0,0-.58.41,1.75,1.75,0,0,0-.36.66,2.86,2.86,0,0,0-.12.87,2.9,2.9,0,0,0,.12.87,1.75,1.75,0,0,0,.36.66,1.5,1.5,0,0,0,.58.41,2.24,2.24,0,0,0,1.56,0A1.5,1.5,0,0,0,50,4.87a2.08,2.08,0,0,0,.36-.66A2.9,2.9,0,0,0,50.49,3.34Z"/></g></g></svg>