<svg xmlns="http://www.w3.org/2000/svg" viewBox="0 0 3.22 2.62"><defs><style>.cls-1{fill:#fff;}</style></defs><title>Ресурс 6</title><g id="Слой_2" data-name="Слой 2"><g id="object"><path class="cls-1" d="M3.22.31a1.18,1.18,0,0,1-.38.1A.61.61,0,0,0,3.13.05a1.11,1.11,0,0,1-.42.16A.65.65,0,0,0,2.23,0a.67.67,0,0,0-.66.66.77.77,0,0,0,0,.15A1.83,1.83,0,0,1,.23.12.63.63,0,0,0,.14.45.64.64,0,0,0,.43,1,.61.61,0,0,1,.13.92h0a.67.67,0,0,0,.53.65l-.17,0H.36A.68.68,0,0,0,1,2.05a1.31,1.31,0,0,1-.82.28H0a1.84,1.84,0,0,0,1,.3A1.87,1.87,0,0,0,2.9.74a.28.28,0,0,0,0-.09A1.33,1.33,0,0,0,3.22.31Z"/></g></g></svg>