<svg xmlns="http://www.w3.org/2000/svg" viewBox="0 0 3.27 3.96"><defs><style>.cls-1{fill:#fff;}</style></defs><title>Ресурс 2</title><g id="Слой_2" data-name="Слой 2"><g id="object"><path class="cls-1" d="M1.29,0H1.07L.92.58.76,0H.53c0,.13.09.27.14.41A3.58,3.58,0,0,1,.8.88v.6H1V.88Zm.59,1.12V.73A.42.42,0,0,0,1.82.48.26.26,0,0,0,1.59.36a.26.26,0,0,0-.23.12.36.36,0,0,0-.07.25v.39a.37.37,0,0,0,.07.26.25.25,0,0,0,.23.11.25.25,0,0,0,.23-.11A.43.43,0,0,0,1.88,1.12Zm-.2,0q0,.15-.09.15c-.06,0-.1-.05-.1-.15V.7c0-.11,0-.16.1-.16s.09,0,.09.16Zm.94.32V.38h-.2v.84c0,.06-.08.09-.13.09s0,0,0-.05V.38h-.2v.87a.62.62,0,0,0,0,.16.13.13,0,0,0,.13.08.31.31,0,0,0,.23-.13v.12Z"/><path class="cls-1" d="M2,2.6a.13.13,0,0,0-.1,0v.67a.14.14,0,0,0,.1,0s.08,0,.08-.15V2.75C2.08,2.65,2.05,2.6,2,2.6Z"/><path class="cls-1" d="M2.73,2.6c-.07,0-.1,0-.1.15v.1h.2v-.1C2.83,2.65,2.79,2.6,2.73,2.6Z"/><path class="cls-1" d="M3.21,2a.41.41,0,0,0-.35-.32c-.41,0-.82,0-1.23,0s-.81,0-1.22,0A.41.41,0,0,0,.06,2,3.34,3.34,0,0,0,0,2.81a3.38,3.38,0,0,0,.06.78.41.41,0,0,0,.35.32A10,10,0,0,0,1.63,4a10.12,10.12,0,0,0,1.23,0,.41.41,0,0,0,.35-.32,3.38,3.38,0,0,0,.06-.78A3.34,3.34,0,0,0,3.21,2ZM.93,2.27H.69V3.52H.47V2.27H.24V2.06H.93Zm.6,1.25h-.2V3.4a.33.33,0,0,1-.22.14A.13.13,0,0,1,1,3.46a.65.65,0,0,1,0-.17V2.43h.2v.88s0,0,0,0a.17.17,0,0,0,.13-.09V2.43h.2Zm.75-.32a.91.91,0,0,1,0,.21.16.16,0,0,1-.16.13.26.26,0,0,1-.2-.12v.1H1.7V2.06h.2v.48a.26.26,0,0,1,.2-.12.16.16,0,0,1,.16.12,1,1,0,0,1,0,.22ZM3,3h-.4v.2c0,.1,0,.15.1.15a.09.09,0,0,0,.09-.08V3.14H3v0c0,.07,0,.11,0,.13a.29.29,0,0,1-.28.24.28.28,0,0,1-.24-.11.45.45,0,0,1-.07-.26V2.79a.43.43,0,0,1,.06-.26.3.3,0,0,1,.24-.11A.27.27,0,0,1,3,2.53.37.37,0,0,1,3,2.79Z"/></g></g></svg>