<svg xmlns="http://www.w3.org/2000/svg" viewBox="0 0 15.49 15.11"><defs><style>.cls-1{isolation:isolate;}.cls-2,.cls-3{fill:#fff;}.cls-3{mix-blend-mode:multiply;}</style></defs><title>Ресурс 4</title><g class="cls-1"><g id="Слой_2" data-name="Слой 2"><g id="object"><path class="cls-2" d="M7.31,9.94V8.79A2.48,2.48,0,0,0,7.31,9.94Z"/><path class="cls-2" d="M4.37,10.71a9.2,9.2,0,0,0,.94.17,4.39,4.39,0,0,1-.2-.87A8.85,8.85,0,0,1,4,9.75a10.29,10.29,0,0,1-.4-2.44H5.53a5.5,5.5,0,0,1,.52-.83H3.61A9.6,9.6,0,0,1,4,4a9.6,9.6,0,0,1,2.47-.4V6a4.6,4.6,0,0,1,.83-.64V3.61A10.29,10.29,0,0,1,9.75,4a6.76,6.76,0,0,1,.17.68,4.24,4.24,0,0,1,.88.11c0-.15-.05-.29-.09-.43A7.64,7.64,0,0,1,13.77,7s0-.07,0-.1A6.89,6.89,0,0,0,6.9,0H6.85A6.88,6.88,0,0,0,0,6.53a2.06,2.06,0,0,0,0,.7,6.88,6.88,0,0,0,6.82,6.53H6.9a6.77,6.77,0,0,0,1-.08C7.39,13.46,5.17,12.79,4.37,10.71Zm8.05-6.3a6.78,6.78,0,0,0-2-1.07,6.52,6.52,0,0,0-1.06-2A6.07,6.07,0,0,1,12.42,4.41ZM7.31.89A3.53,3.53,0,0,1,9.39,3a11.37,11.37,0,0,0-2.08-.26Zm-.83,0v1.9A10.68,10.68,0,0,0,4.37,3,3.51,3.51,0,0,1,6.48.88Zm-2.1.5a6.73,6.73,0,0,0-1,2,7,7,0,0,0-1.95,1A6.08,6.08,0,0,1,4.38,1.38ZM3,4.37a10.68,10.68,0,0,0-.26,2.11H.88A3.51,3.51,0,0,1,3,4.37ZM2.78,7.31A11.26,11.26,0,0,0,3,9.39,3.53,3.53,0,0,1,.89,7.31ZM1.39,9.38a6.8,6.8,0,0,0,2,1,6.86,6.86,0,0,0,1,2A6.06,6.06,0,0,1,1.39,9.38Z"/><path class="cls-2" d="M15.19,13.39a1,1,0,0,1,0,1.43h0a1,1,0,0,1-1.42,0L10.92,12c-.39-.4,1-1.82,1.43-1.43Z"/><path class="cls-2" d="M9.74,13.05A3.69,3.69,0,1,1,12.35,12,3.67,3.67,0,0,1,9.74,13.05Zm0-5.65A2,2,0,0,0,8.35,8a2,2,0,0,0,0,2.79A2,2,0,1,0,9.74,7.4Z"/></g></g></g></svg>