<svg xmlns="http://www.w3.org/2000/svg" viewBox="0 0 23.78 3.01"><defs><style>.cls-1{fill:#fff;}</style></defs><title>Ресурс 1</title><g id="Слой_2" data-name="Слой 2"><g id="object"><path class="cls-1" d="M1.79,1.93l.05,0L2,2.09a1.1,1.1,0,0,1-.35.26,1.28,1.28,0,0,1-.5.09,1.14,1.14,0,0,1-.46-.09.88.88,0,0,1-.35-.24,1,1,0,0,1-.23-.38A1.53,1.53,0,0,1,0,1.24,1.3,1.3,0,0,1,.09.75,1,1,0,0,1,.33.37,1.18,1.18,0,0,1,.7.13,1.28,1.28,0,0,1,1.18,0a1.25,1.25,0,0,1,.45.08A1.19,1.19,0,0,1,2,.34l-.1.14s0,0,0,0H1.74l-.05,0-.08,0a.31.31,0,0,0-.1,0l-.15,0H1.18A1,1,0,0,0,.83.38.8.8,0,0,0,.56.56a.87.87,0,0,0-.17.3,1.12,1.12,0,0,0-.07.38,1.13,1.13,0,0,0,.07.39.74.74,0,0,0,.17.29.83.83,0,0,0,.26.19.83.83,0,0,0,.32.06h.19l.15,0a.61.61,0,0,0,.14-.07L1.74,2Z"/><path class="cls-1" d="M3,.73a.88.88,0,0,1,.33.06A.74.74,0,0,1,3.59,1a.92.92,0,0,1,.16.27,1.29,1.29,0,0,1,0,.35,1.3,1.3,0,0,1,0,.36.92.92,0,0,1-.16.27.74.74,0,0,1-.25.17.94.94,0,0,1-.66,0,.74.74,0,0,1-.25-.17.92.92,0,0,1-.16-.27,1.3,1.3,0,0,1,0-.36,1.29,1.29,0,0,1,0-.35A.92.92,0,0,1,2.43,1,.74.74,0,0,1,2.68.79.88.88,0,0,1,3,.73ZM3,2.21a.43.43,0,0,0,.37-.16.78.78,0,0,0,.12-.46.8.8,0,0,0-.12-.47A.43.43,0,0,0,3,1a.54.54,0,0,0-.22,0,.44.44,0,0,0-.15.12.61.61,0,0,0-.09.2,1.12,1.12,0,0,0,0,.27,1.09,1.09,0,0,0,0,.26.61.61,0,0,0,.09.2.44.44,0,0,0,.15.12A.54.54,0,0,0,3,2.21Z"/><path class="cls-1" d="M4.16,3V.75h.18s.06,0,.08.07l0,.19A1.21,1.21,0,0,1,4.68.8.66.66,0,0,1,5,.73a.58.58,0,0,1,.26.05.62.62,0,0,1,.2.16.85.85,0,0,1,.12.27,1.38,1.38,0,0,1,0,.37,1.27,1.27,0,0,1,0,.34,1.15,1.15,0,0,1-.14.27.58.58,0,0,1-.23.18.6.6,0,0,1-.3.07.67.67,0,0,1-.26,0,.59.59,0,0,1-.2-.15V3ZM4.9,1A.43.43,0,0,0,4.65,1a.67.67,0,0,0-.2.18V2a.6.6,0,0,0,.18.15.49.49,0,0,0,.21,0,.41.41,0,0,0,.36-.16.8.8,0,0,0,.13-.47,1.09,1.09,0,0,0,0-.28.53.53,0,0,0-.09-.2A.26.26,0,0,0,5.08,1,.34.34,0,0,0,4.9,1Z"/><path class="cls-1" d="M6.42,2.91l0,0L6.31,3H6.1l.3-.66L5.71.75H6l0,0,0,0,.44,1,0,.07s0,.05,0,.08l0-.08s0-.05,0-.07L7,.82a.05.05,0,0,1,0,0l.05,0h.23Z"/><path class="cls-1" d="M7.61,2.42V.75h.17l.06,0,0,.06,0,.26A.71.71,0,0,1,8.1.82.48.48,0,0,1,8.39.73h.13l.1,0,0,.22s0,0-.05,0H8.46L8.33,1a.39.39,0,0,0-.26.09.73.73,0,0,0-.17.26V2.42Z"/><path class="cls-1" d="M9.32.23a.11.11,0,0,1,0,.08.16.16,0,0,1,0,.07l-.07,0-.08,0L9,.42,9,.38A.18.18,0,0,1,8.92.31a.19.19,0,0,1,0-.08.31.31,0,0,1,0-.08L9,.08,9,0l.08,0,.08,0,.07,0a.25.25,0,0,1,0,.07A.13.13,0,0,1,9.32.23ZM9.26.75V2.42H9V.75Z"/><path class="cls-1" d="M10.33.73a.65.65,0,0,1,.2,0l.17.07h.45V.93a.07.07,0,0,1-.06.07L10.9,1a.6.6,0,0,1,0,.24.51.51,0,0,1,0,.22.55.55,0,0,1-.13.17.49.49,0,0,1-.2.11.69.69,0,0,1-.25,0,.78.78,0,0,1-.22,0L10,1.84a.13.13,0,0,0,0,.08.11.11,0,0,0,.05.09l.13.05h.38l.2,0a.48.48,0,0,1,.18.06.28.28,0,0,1,.13.11.36.36,0,0,1,0,.19.42.42,0,0,1-.06.21.43.43,0,0,1-.15.18.92.92,0,0,1-.24.13,1.15,1.15,0,0,1-.33,0A1.51,1.51,0,0,1,10,3a1,1,0,0,1-.23-.1.43.43,0,0,1-.13-.14.34.34,0,0,1-.05-.17.28.28,0,0,1,.08-.2.44.44,0,0,1,.22-.14.27.27,0,0,1-.12-.09.3.3,0,0,1,0-.15s0,0,0-.07,0,0,0-.08a.46.46,0,0,1,.07-.07L10,1.71a.55.55,0,0,1-.19-.18.5.5,0,0,1-.07-.27A.54.54,0,0,1,9.75,1,.43.43,0,0,1,9.88.87a.75.75,0,0,1,.2-.11A1,1,0,0,1,10.33.73Zm.52,1.77a.12.12,0,0,0,0-.1.15.15,0,0,0-.09-.06.49.49,0,0,0-.14,0h-.33l-.17,0a.56.56,0,0,0-.15.1.25.25,0,0,0-.06.16.19.19,0,0,0,0,.1.24.24,0,0,0,.09.08.26.26,0,0,0,.14.06l.21,0,.22,0a.52.52,0,0,0,.15-.06.24.24,0,0,0,.1-.1A.17.17,0,0,0,10.85,2.5Zm-.52-.9a.41.41,0,0,0,.16,0,.41.41,0,0,0,.11-.07.36.36,0,0,0,.07-.1.68.68,0,0,0,0-.14A.32.32,0,0,0,10.6,1a.45.45,0,0,0-.54,0,.32.32,0,0,0-.09.24.68.68,0,0,0,0,.14.36.36,0,0,0,.07.1.35.35,0,0,0,.12.07A.34.34,0,0,0,10.33,1.6Z"/><path class="cls-1" d="M11.45,2.42V0h.29V1A.76.76,0,0,1,12,.8a.7.7,0,0,1,.54,0,.59.59,0,0,1,.18.13.63.63,0,0,1,.1.2.71.71,0,0,1,0,.26V2.42h-.29V1.36a.4.4,0,0,0-.09-.29A.32.32,0,0,0,12.19,1,.48.48,0,0,0,12,1a.87.87,0,0,0-.21.17V2.42Z"/><path class="cls-1" d="M13.77,2.44a.37.37,0,0,1-.3-.11.43.43,0,0,1-.1-.31V1h-.2l-.05,0a.05.05,0,0,1,0,0V.82l.28,0,.06-.51a.05.05,0,0,1,0,0l0,0h.15V.79h.47V1h-.47V2a.17.17,0,0,0,.05.15.15.15,0,0,0,.13.05h.08l.06,0,0,0,0,0a.05.05,0,0,1,0,0l.09.14A.45.45,0,0,1,14,2.4.54.54,0,0,1,13.77,2.44Z"/><path class="cls-1" d="M15.44,1a.06.06,0,0,1-.06,0h-.05l-.08,0-.1,0A.39.39,0,0,0,15,1a.32.32,0,0,0-.14,0l-.1.05s0,0-.06.07a.3.3,0,0,0,0,.1.15.15,0,0,0,0,.1.39.39,0,0,0,.1.08l.14,0,.16.05.16.06a.6.6,0,0,1,.13.09.29.29,0,0,1,.1.12.29.29,0,0,1,0,.17.78.78,0,0,1,0,.21.52.52,0,0,1-.12.17.64.64,0,0,1-.2.11.77.77,0,0,1-.27,0,1,1,0,0,1-.31,0,.7.7,0,0,1-.24-.15l.06-.11s0,0,0,0l0,0,.07,0,.08.05.11,0,.17,0,.14,0a.2.2,0,0,0,.11-.06.15.15,0,0,0,.06-.09.16.16,0,0,0,0-.1.24.24,0,0,0,0-.12l-.1-.07L15,1.71l-.16-.05-.16-.06-.14-.08a.38.38,0,0,1-.09-.13.34.34,0,0,1,0-.18.39.39,0,0,1,0-.18.57.57,0,0,1,.11-.16.57.57,0,0,1,.19-.1.66.66,0,0,1,.25,0,.84.84,0,0,1,.29.05.59.59,0,0,1,.23.14Z"/><path class="cls-1" d="M17.3,0a.77.77,0,0,1,.27,0,.73.73,0,0,1,.23.13A.8.8,0,0,1,18,.42.76.76,0,0,1,18,.69a.69.69,0,0,1,0,.25,1,1,0,0,1-.1.21,1.56,1.56,0,0,1-.16.2l-.19.19-.61.64.13,0H18a.1.1,0,0,1,.1.1v.18H16.48v-.1s0,0,0-.07l0-.06.76-.75.17-.19.13-.17A.71.71,0,0,0,17.67.9a.64.64,0,0,0,0-.2.48.48,0,0,0,0-.18.38.38,0,0,0-.09-.13.33.33,0,0,0-.13-.07.51.51,0,0,0-.17,0,.41.41,0,0,0-.16,0A.37.37,0,0,0,17,.39a.52.52,0,0,0-.1.11.58.58,0,0,0-.05.14s0,.06,0,.07l-.07,0h0l-.15,0a.62.62,0,0,1,.09-.28.69.69,0,0,1,.16-.21A.7.7,0,0,1,17,.08.82.82,0,0,1,17.3,0Z"/><path class="cls-1" d="M20,1.24a2.08,2.08,0,0,1-.07.54,1,1,0,0,1-.18.37.73.73,0,0,1-.61.29.72.72,0,0,1-.33-.07.64.64,0,0,1-.27-.22,1,1,0,0,1-.18-.37,1.73,1.73,0,0,1-.07-.54,1.7,1.7,0,0,1,.07-.53,1,1,0,0,1,.18-.38.64.64,0,0,1,.27-.22A.72.72,0,0,1,19.16,0a.8.8,0,0,1,.34.07.8.8,0,0,1,.27.22A1,1,0,0,1,20,.71,2.06,2.06,0,0,1,20,1.24Zm-.31,0a1.92,1.92,0,0,0,0-.45A.87.87,0,0,0,19.55.5a.39.39,0,0,0-.18-.16.47.47,0,0,0-.42,0,.42.42,0,0,0-.17.16.87.87,0,0,0-.12.29,1.87,1.87,0,0,0-.05.45,1.87,1.87,0,0,0,.05.45,1,1,0,0,0,.12.3.64.64,0,0,0,.17.16.57.57,0,0,0,.42,0A.55.55,0,0,0,19.55,2a1,1,0,0,0,.12-.3A1.92,1.92,0,0,0,19.71,1.24Z"/><path class="cls-1" d="M20.59,2.19h.5V.59a.61.61,0,0,1,0-.14L20.68.8l0,0h-.07s0,0,0,0L20.45.67l.7-.61h.23V2.19h.47v.23H20.59Z"/><path class="cls-1" d="M23.08,1a.77.77,0,0,1,.27,0,.55.55,0,0,1,.22.14.48.48,0,0,1,.15.22.7.7,0,0,1,.06.3.8.8,0,0,1-.06.3.78.78,0,0,1-.16.24.87.87,0,0,1-.26.16.88.88,0,0,1-.33.06,1.07,1.07,0,0,1-.32,0,.7.7,0,0,1-.24-.17A.63.63,0,0,1,22.25,2a.88.88,0,0,1-.06-.33,1.09,1.09,0,0,1,.07-.33,1.88,1.88,0,0,1,.22-.37l.6-.8a.1.1,0,0,1,.06-.05.15.15,0,0,1,.09,0h.26l-.81,1A.61.61,0,0,1,22.86,1,.78.78,0,0,1,23.08,1Zm-.6.71a.66.66,0,0,0,0,.21.51.51,0,0,0,.09.16.54.54,0,0,0,.16.1.57.57,0,0,0,.42,0,.44.44,0,0,0,.16-.1.57.57,0,0,0,.11-.16.64.64,0,0,0,0-.2.66.66,0,0,0,0-.21.54.54,0,0,0-.1-.16l-.16-.1a.64.64,0,0,0-.2,0,.54.54,0,0,0-.22,0,.57.57,0,0,0-.16.11.78.78,0,0,0-.1.15A.63.63,0,0,0,22.48,1.69Z"/></g></g></svg>