<svg xmlns="http://www.w3.org/2000/svg" viewBox="0 0 4 3.5"><defs><style>.cls-1{fill:#fff;}</style></defs><title>Ресурс 3</title><g id="Слой_2" data-name="Слой 2"><g id="object"><path class="cls-1" d="M1.63.16a.32.32,0,0,1,.09.08.64.64,0,0,1,.1.13,1.31,1.31,0,0,1,.09.17,1.43,1.43,0,0,1,0,.23.75.75,0,0,1-.11.39l-.11.13-.13.12a.31.31,0,0,0-.07.09.2.2,0,0,0,0,.13.14.14,0,0,0,0,.11.28.28,0,0,0,.06.08L1.74,2A1.48,1.48,0,0,1,2,2.2a.71.71,0,0,1,.1.38.75.75,0,0,1-.29.58,1.34,1.34,0,0,1-.86.27,1.09,1.09,0,0,1-.71-.21A.55.55,0,0,1,0,2.78a.77.77,0,0,1,.07-.27.57.57,0,0,1,.28-.27A1.23,1.23,0,0,1,.8,2.07a3.58,3.58,0,0,1,.4,0l-.09-.14a.29.29,0,0,1,0-.17.22.22,0,0,1,0-.09l0-.08H1a.7.7,0,0,1-.55-.23A.69.69,0,0,1,.22.85.81.81,0,0,1,.5.25,1,1,0,0,1,.9,0a2.9,2.9,0,0,1,.38,0h.9L1.91.16ZM1.8,2.75a.43.43,0,0,0-.11-.3,3,3,0,0,0-.37-.29H1l-.28.06-.1,0a.42.42,0,0,0-.12.08.47.47,0,0,0-.11.13.46.46,0,0,0,0,.21.46.46,0,0,0,.21.39,1,1,0,0,0,.56.16.75.75,0,0,0,.49-.14A.43.43,0,0,0,1.8,2.75ZM1.18,1.43a.4.4,0,0,0,.29-.12.48.48,0,0,0,.08-.18V1A1.19,1.19,0,0,0,1.42.44.87.87,0,0,0,1.25.23.41.41,0,0,0,1,.15.37.37,0,0,0,.7.3.56.56,0,0,0,.6.63a1.06,1.06,0,0,0,.15.51.68.68,0,0,0,.17.21A.47.47,0,0,0,1.18,1.43Z"/><polygon class="cls-1" points="3.4 0.49 2.93 0.49 2.93 0.02 2.7 0.02 2.7 0.49 2.23 0.49 2.23 0.72 2.7 0.72 2.7 1.19 2.93 1.19 2.93 0.72 3.4 0.72 3.4 0.49"/></g></g></svg>