<svg xmlns="http://www.w3.org/2000/svg" viewBox="0 0 5.04 5.04"><defs><style>.cls-1{isolation:isolate;}.cls-2{fill:#313332;}.cls-3{fill:#fff;mix-blend-mode:multiply;}</style></defs><title>Ресурс 4</title><g class="cls-1"><g id="Слой_2" data-name="Слой 2"><g id="object"><path class="cls-2" d="M5,4.31,4.31,5,2.49,3.22c-.2-.2.53-.93.73-.73Z"/><path class="cls-2" d="M1.88,3.77A1.89,1.89,0,0,1,.55.55a1.9,1.9,0,0,1,2.67,0,1.9,1.9,0,0,1,0,2.67A1.91,1.91,0,0,1,1.88,3.77Zm0-2.89a1,1,0,0,0-.71.29,1,1,0,0,0,0,1.43,1,1,0,0,0,1.43,0A1,1,0,0,0,1.88.88Z"/><path class="cls-3" d="M1.88.88a1,1,0,1,1-.71.29A1,1,0,0,1,1.88.88"/></g></g></g></svg>